<svg width="21" height="20" viewBox="0 0 21 20" fill="none" xmlns="http://www.w3.org/2000/svg">
<path fill-rule="evenodd" clip-rule="evenodd" d="M5.422 0L5.657 2.031H20.827L19.128 15H5.14L3.64 2H0V0H5.422ZM6.922 13H17.372L18.548 4.031H5.888L6.922 13Z" fill="white"/>
<path d="M6.98389 20C8.08846 20 8.98389 19.1046 8.98389 18C8.98389 16.8954 8.08846 16 6.98389 16C5.87932 16 4.98389 16.8954 4.98389 18C4.98389 19.1046 5.87932 20 6.98389 20Z" fill="white"/>
<path d="M15.9839 20C17.0885 20 17.9839 19.1046 17.9839 18C17.9839 16.8954 17.0885 16 15.9839 16C14.8793 16 13.9839 16.8954 13.9839 18C13.9839 19.1046 14.8793 20 15.9839 20Z" fill="white"/>
</svg>
