<svg width="38" height="38" viewBox="0 0 38 38" fill="none" xmlns="http://www.w3.org/2000/svg">
<path opacity="0.5" fill-rule="evenodd" clip-rule="evenodd" d="M18.9251 0.236716C29.2084 0.236716 37.5446 8.57312 37.5446 18.8565C37.5446 29.1398 29.2084 37.4757 18.9251 37.4757C8.6418 37.4757 0.305556 29.1398 0.305556 18.8565C0.305556 8.57312 8.6418 0.236716 18.9251 0.236716ZM18.8646 3.22748C27.5308 3.22748 34.5562 10.2528 34.5562 18.9191C34.5562 27.5854 27.5308 34.611 18.8646 34.611C10.1982 34.611 3.17284 27.5854 3.17284 18.9191C3.17284 10.2528 10.1982 3.22748 18.8646 3.22748Z" fill="white"/>
<g opacity="0.8">
<path fill-rule="evenodd" clip-rule="evenodd" d="M2.99976 18.9998C2.99976 10.1628 10.1638 2.99976 18.9998 2.99976C27.8368 2.99976 34.9998 10.1638 34.9998 18.9998C34.9998 27.8358 27.8368 34.9998 18.9998 34.9998C10.1638 34.9998 2.99976 27.8368 2.99976 18.9998ZM20.0408 12.4548H23.0618H23.0628V9.00976H20.0418C18.3738 9.00976 17.0208 10.5528 17.0208 12.4548V15.8988H13.9998V19.3438H17.0198V27.9538H20.0408V19.3438H23.0618V15.8988H20.0408V12.4548Z" fill="white"/>
</g>
</svg>
