<svg width="38" height="38" viewBox="0 0 38 38" fill="none" xmlns="http://www.w3.org/2000/svg">
<path opacity="0.5" fill-rule="evenodd" clip-rule="evenodd" d="M18.9252 0.236716C29.2084 0.236716 37.5446 8.57312 37.5446 18.8565C37.5446 29.1398 29.2084 37.4757 18.9252 37.4757C8.64184 37.4757 0.305556 29.1398 0.305556 18.8565C0.305556 8.57312 8.64184 0.236716 18.9252 0.236716ZM18.8645 3.22748C27.5308 3.22748 34.5562 10.2528 34.5562 18.9191C34.5562 27.5854 27.5308 34.611 18.8645 34.611C10.1983 34.611 3.17292 27.5854 3.17292 18.9191C3.17292 10.2528 10.1983 3.22748 18.8645 3.22748Z" fill="white"/>
<g opacity="0.8">
<path d="M23.9158 18.9999C23.9158 21.7273 21.7047 23.9384 18.9773 23.9384C16.2498 23.9384 14.0388 21.7273 14.0388 18.9999C14.0388 18.6059 14.0898 18.2269 14.1768 17.8599H13.2798V24.6979H24.6758V17.8599H23.7788C23.8648 18.2269 23.9158 18.6059 23.9158 18.9999Z" fill="white"/>
<path fill-rule="evenodd" clip-rule="evenodd" d="M24.6758 13.3018H21.6368V16.3408H24.6758V13.3018ZM21.6368 18.9998C21.6368 20.4658 20.4438 21.6588 18.9778 21.6588C17.5108 21.6588 16.3188 20.4658 16.3188 18.9998C16.3188 17.5338 17.5118 16.3408 18.9778 16.3408C20.4438 16.3408 21.6368 17.5338 21.6368 18.9998Z" fill="white"/>
<path fill-rule="evenodd" clip-rule="evenodd" d="M2.99976 18.9998C2.99976 10.1638 10.1638 2.99976 18.9998 2.99976C27.8368 2.99976 34.9998 10.1638 34.9998 18.9998C34.9998 27.8368 27.8368 34.9998 18.9998 34.9998C10.1638 34.9998 2.99976 27.8368 2.99976 18.9998ZM24.6758 26.9768C25.933 26.9735 26.9515 25.955 26.9548 24.6978H26.9538V13.3018C26.9499 12.0447 25.9318 11.0266 24.6748 11.0228H13.2788C12.0217 11.0266 11.0036 12.0447 10.9998 13.3018V24.6978C11.0031 25.955 12.0215 26.9735 13.2788 26.9768H24.6758Z" fill="white"/>
</g>
</svg>
