<svg width="109" height="38" viewBox="0 0 109 38" fill="none" xmlns="http://www.w3.org/2000/svg">
<path fill-rule="evenodd" clip-rule="evenodd" d="M14.71 0.97998H14.55L0 2.51998V29.19L14.55 37.85L29.1 29.19V2.51998L14.71 0.97998ZM73 2.42998H71.17V14.58H73V2.42998ZM38.73 2.43998V7.19998C39.442 6.47518 40.414 6.06478 41.43 6.05998C42.3511 6.00498 43.2521 6.34408 43.9084 6.9927C44.5646 7.64133 44.9142 8.53833 44.87 9.45998V14.61H43V9.69998C43.0532 9.22098 42.9132 8.74053 42.611 8.3651C42.3088 7.98968 41.8693 7.75029 41.39 7.69998H41.09C40.1363 7.75734 39.2704 8.2761 38.77 9.08998V14.61H36.87V2.43998H38.73ZM73 29.18H71.35V27.86C70.5967 28.8571 69.4093 29.4303 68.16 29.4C65.8503 29.244 64.0565 27.325 64.0565 25.01C64.0565 22.695 65.8503 20.776 68.16 20.62C69.3046 20.5804 70.4062 21.0578 71.16 21.92V16.98H73V29.18ZM44.61 27.86C44.7971 27.8526 44.9823 27.8189 45.16 27.76V29.09C44.7831 29.2325 44.3829 29.3037 43.98 29.3C43.2665 29.3591 42.5948 28.9568 42.31 28.3C41.4234 29.019 40.3113 29.4015 39.17 29.38C37.66 29.38 36.26 28.55 36.26 26.83C36.26 24.7 38.26 24.04 39.97 24.04C40.6998 24.0516 41.4267 24.1354 42.14 24.29V23.99C42.14 22.99 41.38 22.22 39.95 22.22C38.9163 22.222 37.8945 22.44 36.95 22.86V21.16C37.9773 20.8082 39.0542 20.6225 40.14 20.61C42.5 20.61 43.95 21.73 43.95 24.26V27.26C43.9361 27.4033 43.98 27.5463 44.0721 27.6571C44.1641 27.7679 44.2965 27.8373 44.44 27.85H44.61V27.86ZM38.17 26.73C38.1955 27.0903 38.3643 27.4253 38.6386 27.6602C38.913 27.8951 39.2701 28.0103 39.63 27.98H39.74C40.6446 27.9815 41.5123 27.6215 42.15 26.98V25.56C41.5546 25.4335 40.9486 25.3632 40.34 25.35C39.34 25.35 38.18 25.68 38.18 26.73H38.17ZM53.1 21.26C52.3164 20.8195 51.4286 20.5984 50.53 20.62H50.18C49.0341 20.6565 47.9496 21.1471 47.1656 21.9836C46.3816 22.8202 45.9623 23.9341 46 25.08V25.49C46.1551 27.8052 48.1543 29.5585 50.47 29.41C51.4213 29.4319 52.3652 29.237 53.23 28.84V27.13C52.4877 27.5467 51.6513 27.767 50.8 27.77C49.7798 27.8316 48.8095 27.3223 48.2808 26.4476C47.7521 25.5729 47.7521 24.4771 48.2808 23.6024C48.8095 22.7277 49.7798 22.2184 50.8 22.28C51.6196 22.277 52.421 22.5209 53.1 22.98V21.26ZM62.7 27.86C62.8871 27.8526 63.0723 27.8189 63.25 27.76V29.09C62.8731 29.2325 62.4729 29.3037 62.07 29.3C61.3565 29.3591 60.6848 28.9568 60.4 28.3C59.5134 29.019 58.4013 29.4015 57.26 29.38C55.75 29.38 54.35 28.55 54.35 26.83C54.35 24.7 56.35 24.04 58.06 24.04C58.7898 24.0516 59.5167 24.1354 60.23 24.29V23.99C60.23 22.99 59.47 22.22 58.04 22.22C57.0063 22.222 55.9845 22.44 55.04 22.86V21.16C56.0673 20.8082 57.1442 20.6225 58.23 20.61C60.59 20.61 62.04 21.73 62.04 24.26V27.26C62.0261 27.4033 62.07 27.5463 62.1621 27.6571C62.2541 27.7679 62.3865 27.8373 62.53 27.85H62.7V27.86ZM56.7322 27.6641C56.4556 27.4289 56.2854 27.0922 56.26 26.73H56.28C56.28 25.68 57.38 25.35 58.44 25.35C59.0486 25.3632 59.6546 25.4335 60.25 25.56V26.98C59.6123 27.6215 58.7446 27.9815 57.84 27.98H57.73C57.3684 28.0131 57.0088 27.8993 56.7322 27.6641ZM65.71 24.96C65.71 23.4357 66.9457 22.2 68.47 22.2L68.49 22.25C69.6407 22.25 70.6834 22.9281 71.15 23.98V25.98C70.6942 27.0515 69.6342 27.7396 68.47 27.72C66.9457 27.72 65.71 26.4843 65.71 24.96ZM79 20.62C82.31 20.62 83.46 23.3 82.92 25.71H76.7C76.91 27.21 78.37 27.82 79.89 27.82C80.803 27.823 81.7051 27.6214 82.53 27.23V28.83C81.5828 29.2341 80.5594 29.4285 79.53 29.4C77 29.4 74.78 27.98 74.78 24.98C74.723 23.866 75.1135 22.7755 75.8648 21.9511C76.616 21.1266 77.6656 20.6366 78.78 20.59H79V20.62ZM76.65 24.26C76.7458 23.0073 77.837 22.0682 79.09 22.16H79.13C79.7182 22.1077 80.2995 22.318 80.718 22.7347C81.1365 23.1513 81.3496 23.7315 81.3 24.32H76.65V24.26ZM84.82 29.16V20.85H86.47V21.85C87.1788 21.0572 88.1867 20.5968 89.25 20.58C90.3232 20.5133 91.3432 21.0541 91.89 21.98C92.6412 21.1627 93.6904 20.6832 94.8 20.65C95.6846 20.6059 96.545 20.9473 97.1587 21.5859C97.7724 22.2246 98.0792 23.0978 98 23.98V29.18H96.1V24.03C96.1447 23.6094 96.0201 23.1884 95.7536 22.86C95.4871 22.5315 95.1008 22.3228 94.68 22.28H94.42C93.599 22.3311 92.842 22.7407 92.35 23.4V29.18H90.45V24.03C90.4916 23.6063 90.3616 23.1836 90.0891 22.8566C89.8166 22.5295 89.4242 22.3254 89 22.29H88.8C87.9077 22.3685 87.0971 22.8416 86.59 23.58V29.21H84.86L84.82 29.16ZM108.03 20.83H106.13L103.62 27.13L100.76 20.84H98.76L102.76 29.24L102.59 29.66C102.1 30.92 101.42 31.56 100.52 31.56C100.232 31.563 99.9457 31.5225 99.67 31.44V33.01C100.03 33.0993 100.399 33.1463 100.77 33.15C102.03 33.15 103.22 32.46 104.12 30.29L108.03 20.83ZM49.94 6.28998V3.28998L48.08 3.71998V6.23998H46.58V7.86998H48.14V12.04C48.0767 12.806 48.3623 13.5596 48.9173 14.0913C49.4722 14.623 50.2374 14.876 51 14.78C51.7509 14.7861 52.4977 14.6679 53.21 14.43V12.83C52.6732 13.048 52.0993 13.16 51.52 13.16C50.44 13.16 49.94 12.8 49.94 11.7V7.88998H52.94V6.28998H49.94ZM55.34 14.6V6.25998H57V7.25998C57.7047 6.46605 58.7087 6.00212 59.77 5.97998C60.8148 5.91407 61.8121 6.42422 62.37 7.30998C63.1212 6.49273 64.1704 6.01319 65.28 5.97998C66.1713 5.94523 67.0334 6.30111 67.6406 6.95447C68.2479 7.60782 68.5398 8.49361 68.44 9.37998V14.59H66.54V9.43998C66.5847 9.01942 66.4601 8.59837 66.1936 8.26995C65.9271 7.94154 65.5408 7.73283 65.12 7.68998H64.89C64.069 7.74112 63.312 8.1507 62.82 8.80998V14.59H60.92V9.43998C60.9647 9.01942 60.8401 8.59837 60.5736 8.26995C60.3071 7.94154 59.9208 7.73283 59.5 7.68998H59.27C58.3777 7.76848 57.5671 8.24161 57.06 8.97998V14.61H55.34V14.6ZM27.2 28.0859L27.21 28.08L27.2 28.1V28.0859ZM27.2 16.98V28.0859L14.55 35.62L1.9 28.1V17.16L14.49 24.66V25.98L5.86 20.88V22.19L14.54 27.4V28.79L5.87 23.63V24.98L14.55 30.19L23.3 24.95V19.29L27.2 16.98ZM27.21 15.55L23.73 17.55L22.13 18.55L14.51 13.98V15.29L21 19.21L20.86 19.3L19.86 19.84L14.49 16.64V17.98L18.73 20.5L17.73 21.17L14.53 19.27V20.58L16.63 21.82L14.5 23.08L2 15.63L14.51 8.08998L27.21 15.55ZM14.49 6.73998L27.21 14.23V4.22998L14.56 2.89998L1.91 4.22998V14.23L14.49 6.73998Z" fill="white"/>
</svg>
