<svg width="80" height="140" viewBox="0 0 80 140" fill="none" xmlns="http://www.w3.org/2000/svg">
<path fill-rule="evenodd" clip-rule="evenodd" d="M4.714 35.387C4.714 15.93 20.543 0.100952 40 0.100952C59.456 0.100952 75.285 15.93 75.286 35.386C75.285 39.0215 74.7228 42.635 73.619 46.099C77.238 49.116 79.522 53.653 79.522 58.615C79.522 67.599 72.213 74.909 63.229 74.909C60.1565 74.9065 57.1483 74.0293 54.556 72.38C50.875 76.226 45.697 78.567 40 78.567C34.303 78.567 29.124 76.226 25.443 72.38C22.912 73.9839 19.928 74.909 16.771 74.909C7.788 74.909 0.479004 67.599 0.479004 58.615C0.479004 53.652 2.763 49.116 6.382 46.1C5.282 42.65 4.714 39.033 4.714 35.387ZM68.285 35.387C68.285 19.765 55.622 7.10095 40 7.10095C24.378 7.10095 11.714 19.765 11.714 35.387C11.7087 40.3135 12.9966 45.1552 15.449 49.428C10.945 50.072 7.479 53.934 7.479 58.616C7.479 63.748 11.639 67.909 16.771 67.909C21.454 67.909 25.315 64.442 25.959 59.938C26.3113 60.1392 26.6677 60.3333 27.028 60.52C28.04 66.78 33.454 71.5659 40 71.5659C46.545 71.5659 51.959 66.781 52.971 60.521C53.332 60.334 53.688 60.139 54.041 59.938C54.684 64.442 58.547 67.909 63.229 67.909C65.6937 67.9092 68.0576 66.9302 69.8004 65.1874C71.5433 63.4446 72.5223 61.0807 72.522 58.616C72.522 53.934 69.054 50.071 64.551 49.428C66.923 45.289 68.285 40.499 68.285 35.387Z" fill="#E84D37"/>
<path fill-rule="evenodd" clip-rule="evenodd" d="M63.2289 78.9081C60.3939 78.9081 57.6689 78.3101 55.1889 77.2271C54.8552 77.4969 54.5062 77.7457 54.1571 77.9945L54.0399 78.0781L54.5649 78.6031L50.6669 82.5011L48.9939 80.8281C48.3069 81.1011 47.6079 81.3451 46.8929 81.5561L49.2519 83.9151L45.3539 87.8131L41.4559 83.9151L43.0119 82.3591C42.0229 82.4811 41.0229 82.5651 40.0009 82.5651C39.0129 82.5651 38.0429 82.4861 37.0839 82.3711L38.6269 83.9151L34.7289 87.8131L30.8309 83.9151L33.1699 81.5751C32.4576 81.3669 31.7555 81.1253 31.0659 80.8511L29.4169 82.5001L25.5189 78.6021L26.0089 78.1131L25.9581 78.0769L25.9581 78.0769C25.57 77.801 25.1817 77.525 24.8119 77.2261C22.2768 78.3349 19.5398 78.9072 16.7729 78.9071C16.6563 78.9071 16.5419 78.8992 16.4277 78.8914C16.342 78.8855 16.2564 78.8796 16.1699 78.8771C16.0936 79.4228 16.1484 79.9788 16.3299 80.4991L36.7049 137.624C36.7196 137.666 36.7384 137.704 36.7572 137.743L36.7572 137.743C36.7691 137.767 36.781 137.792 36.7919 137.817L36.8086 137.856C36.8326 137.913 36.8563 137.969 36.8839 138.023C36.9539 138.163 37.0339 138.294 37.1209 138.42L37.1272 138.429L37.1376 138.445C37.1449 138.456 37.1521 138.468 37.1593 138.479L37.1593 138.479L37.1593 138.479L37.1594 138.48L37.1594 138.48L37.1712 138.498L37.1801 138.512C37.1881 138.525 37.1963 138.537 37.2049 138.549C37.3299 138.715 37.4669 138.869 37.6169 139.008C37.6356 139.026 37.656 139.041 37.6765 139.057C37.6911 139.069 37.7057 139.08 37.7199 139.092C37.8449 139.199 37.9739 139.297 38.1119 139.386C38.1651 139.42 38.2201 139.451 38.2759 139.482L38.2762 139.482L38.2764 139.482L38.2909 139.49C38.4289 139.567 38.5699 139.635 38.7169 139.692C38.7351 139.699 38.7519 139.708 38.7687 139.717L38.7687 139.717C38.7869 139.727 38.8051 139.737 38.8249 139.744C38.8347 139.747 38.8444 139.75 38.8541 139.752L38.8609 139.753L38.8717 139.756C38.8758 139.757 38.8799 139.759 38.8839 139.76C39.0109 139.803 39.1419 139.834 39.2749 139.863C39.2962 139.868 39.3174 139.873 39.3385 139.879L39.3387 139.879C39.372 139.887 39.4053 139.896 39.4389 139.901C39.6239 139.931 39.8119 139.949 40.0009 139.949C40.1899 139.949 40.3779 139.931 40.5629 139.901C40.5992 139.895 40.6352 139.886 40.6712 139.877L40.6714 139.876L40.6716 139.876L40.6725 139.876L40.7086 139.867L40.7329 139.861C40.8629 139.834 40.9919 139.803 41.1169 139.76C41.1272 139.757 41.1372 139.754 41.1471 139.752C41.1574 139.75 41.1677 139.748 41.1779 139.744C41.2 139.736 41.2197 139.726 41.2394 139.715C41.2554 139.707 41.2714 139.698 41.2889 139.691C41.4339 139.633 41.5739 139.567 41.7099 139.491C41.772 139.458 41.833 139.422 41.8929 139.385C42.0289 139.297 42.1579 139.199 42.2809 139.094C42.297 139.08 42.314 139.067 42.331 139.053L42.331 139.053L42.3312 139.053L42.3313 139.053L42.3314 139.053C42.35 139.038 42.3687 139.024 42.3859 139.008C42.5359 138.868 42.6729 138.714 42.7979 138.548C42.8156 138.524 42.8313 138.499 42.8469 138.474C42.8577 138.457 42.8684 138.44 42.8799 138.423C42.9679 138.295 43.0489 138.162 43.1199 138.022C43.1529 137.956 43.1819 137.888 43.2099 137.821C43.2213 137.794 43.2341 137.768 43.2469 137.742L43.2469 137.741L43.2469 137.741L43.247 137.741L43.247 137.741C43.2655 137.703 43.2841 137.665 43.2989 137.624L63.6719 80.5001C63.8534 79.9798 63.9082 79.4238 63.8319 78.8781C63.7454 78.8806 63.6598 78.8865 63.5741 78.8924C63.4598 78.9002 63.3455 78.9081 63.2289 78.9081ZM49.2519 94.5411L45.3539 98.4391L41.4559 94.5411L45.3539 90.6431L49.2519 94.5411ZM40.0409 95.9561L36.1429 99.8541L40.0409 103.752L43.9389 99.8541L40.0409 95.9561ZM43.9389 110.479L40.0409 114.377L36.1429 110.479L40.0409 106.581L43.9389 110.479ZM43.9389 89.2281L40.0409 85.3301L36.1429 89.2281L40.0409 93.1261L43.9389 89.2281ZM38.6269 94.5411L34.7289 98.4391L30.8309 94.5411L34.7289 90.6431L38.6269 94.5411ZM24.1039 80.0171L23.7239 80.3971L25.7729 86.1441L28.0019 83.9151L24.1039 80.0171ZM26.5169 88.2291L29.4159 85.3301L33.3139 89.2281L29.4159 93.1261L27.6249 91.3351L26.5169 88.2291ZM29.4159 95.9561L29.3109 96.0611L31.3599 101.808L33.3139 99.8541L29.4159 95.9561ZM33.5159 107.853L32.1029 103.893L34.7279 101.268L38.6259 105.166L34.7279 109.064L33.5159 107.853ZM35.0839 112.248L36.9469 117.471L38.6269 115.791L35.0839 112.248ZM39.9999 126.031L37.6899 119.555L40.0409 117.204L42.3309 119.494L39.9999 126.031ZM41.4549 115.791L43.0739 117.41L44.8699 112.376L41.4549 115.791ZM46.4379 107.979L45.3529 109.064L41.4549 105.166L45.3529 101.268L47.9169 103.832L46.4379 107.979ZM46.7669 99.8531L48.6609 101.747L50.7109 96.0001L50.6649 95.9551L46.7669 99.8531ZM52.3289 91.4641L50.6659 93.1271L46.7679 89.2291L50.6659 85.3311L53.5039 88.1691L52.3289 91.4641ZM52.0799 83.9161L54.2479 86.0841L56.2969 80.3371L55.9779 80.0181L52.0799 83.9161Z" fill="#E84D37"/>
</svg>
