<svg width="38" height="38" viewBox="0 0 38 38" fill="none" xmlns="http://www.w3.org/2000/svg">
<path opacity="0.5" fill-rule="evenodd" clip-rule="evenodd" d="M18.9252 0.236816C29.2085 0.236816 37.5447 8.57322 37.5447 18.8566C37.5447 29.1399 29.2085 37.4758 18.9252 37.4758C8.6419 37.4758 0.305664 29.1399 0.305664 18.8566C0.305664 8.57322 8.6419 0.236816 18.9252 0.236816ZM18.8646 3.22758C27.5309 3.22758 34.5563 10.2529 34.5563 18.9192C34.5563 27.5855 27.5309 34.6111 18.8646 34.6111C10.1984 34.6111 3.17298 27.5855 3.17298 18.9192C3.17298 10.2529 10.1984 3.22758 18.8646 3.22758Z" fill="white"/>
<g opacity="0.8">
<path fill-rule="evenodd" clip-rule="evenodd" d="M2.99976 18.9998C2.99976 10.1638 10.1638 2.99976 18.9998 2.99976C27.8368 2.99976 34.9998 10.1638 34.9998 18.9998C34.9998 27.8368 27.8368 34.9998 18.9998 34.9998C10.1638 34.9998 2.99976 27.8368 2.99976 18.9998ZM15.9518 26.5108C23.4808 26.6408 26.6928 22.3248 26.9438 15.8088C27.5568 15.5798 28.4668 14.8178 28.6508 13.8548C28.6508 13.8548 27.9748 14.4948 27.2278 14.3298C27.5938 14.0838 28.1588 13.4538 28.1628 12.6208C27.7529 12.742 27.3505 12.8704 26.9478 12.9988C26.6233 13.1023 26.2986 13.2058 25.9698 13.3058C25.3238 12.4278 23.9088 11.6888 22.0688 12.1678C20.1408 12.7938 19.1278 14.2788 18.9008 16.4928C15.1718 16.3318 13.0808 14.6398 11.0968 12.8498C9.92176 14.3868 11.3028 17.3978 12.0708 17.6308C11.7748 17.6918 10.9218 17.4908 10.6108 17.1738C10.5384 19.1192 11.7496 19.8658 12.958 20.6107C13.0689 20.6791 13.1799 20.7475 13.2898 20.8168C12.7025 20.9099 12.4476 20.8357 12.1423 20.7468C12.0936 20.7326 12.0436 20.7181 11.9908 20.7038C12.2829 22.83 13.8026 23.1987 14.8718 23.4582C15.0029 23.49 15.1273 23.5202 15.2418 23.5518C14.3688 24.2818 12.6008 24.8778 10.1218 24.6878C10.9228 26.0678 15.0188 26.5108 15.4658 26.5108H15.9518Z" fill="white"/>
</g>
</svg>
