<svg width="38" height="38" viewBox="0 0 38 38" fill="none" xmlns="http://www.w3.org/2000/svg">
<path opacity="0.5" fill-rule="evenodd" clip-rule="evenodd" d="M18.9252 0.236716C29.2084 0.236716 37.5446 8.57312 37.5446 18.8565C37.5446 29.1398 29.2084 37.4757 18.9252 37.4757C8.6418 37.4757 0.305556 29.1398 0.305556 18.8565C0.305556 8.57312 8.6418 0.236716 18.9252 0.236716ZM18.8645 3.22748C27.5308 3.22748 34.5562 10.2528 34.5562 18.9191C34.5562 27.5854 27.5308 34.611 18.8645 34.611C10.1982 34.611 3.17276 27.5854 3.17276 18.9191C3.17276 10.2528 10.1982 3.22748 18.8645 3.22748Z" fill="white"/>
<g opacity="0.8">
<path fill-rule="evenodd" clip-rule="evenodd" d="M20.5878 17.3068C20.3558 17.4128 20.0388 17.4758 19.6368 17.4948C19.2348 17.5138 18.7488 17.5228 18.1778 17.5228H17.6128V14.5578H17.9518C18.5025 14.5565 19.0532 14.5612 19.6038 14.5718C19.9958 14.5818 20.3238 14.6368 20.5878 14.7368C20.8828 14.8488 21.0888 15.0218 21.2048 15.2538C21.3208 15.4858 21.3788 15.7188 21.3788 15.9508C21.3788 16.2518 21.3298 16.5188 21.2288 16.7478C21.1278 16.9768 20.9138 17.1618 20.5878 17.3068ZM19.9518 19.9518C20.4458 19.9588 20.8358 20.0028 21.1178 20.0838C21.5308 20.2038 21.8248 20.3858 21.9948 20.6268C22.1678 20.8688 22.2558 21.2108 22.2558 21.6568C22.2558 21.9948 22.1828 22.2958 22.0418 22.5568C21.9008 22.8178 21.6448 23.0248 21.2678 23.1818C20.8836 23.3415 20.4719 23.4247 20.0558 23.4268C19.6158 23.4328 18.8898 23.4358 17.8758 23.4358H17.6118V19.9428H18.4018C18.9185 19.9427 19.4352 19.9457 19.9518 19.9518Z" fill="white"/>
<path fill-rule="evenodd" clip-rule="evenodd" d="M2.99976 18.9998C2.99976 10.1638 10.1638 2.99976 18.9998 2.99976C27.8368 2.99976 34.9998 10.1638 34.9998 18.9998C34.9998 27.8368 27.8368 34.9998 18.9998 34.9998C10.1638 34.9998 2.99976 27.8368 2.99976 18.9998ZM24.4778 24.8578C24.9517 24.5102 25.3369 24.0555 25.6018 23.5308C25.8748 22.9968 26.0128 22.3918 26.0128 21.7138C26.0128 20.7778 25.7428 20.0238 25.2058 19.4528C24.6688 18.8818 23.9438 18.5048 23.0268 18.3228V18.2478C23.6808 17.9598 24.1858 17.5578 24.5438 17.0398C24.9008 16.5228 25.0798 15.9228 25.0798 15.2448C25.0798 14.6618 24.9478 14.1418 24.6878 13.6868C24.4278 13.2318 24.0318 12.8698 23.4988 12.5998C23.0086 12.3504 22.4815 12.1816 21.9378 12.0998C21.4148 12.0248 20.5878 11.9868 19.4578 11.9868H14.0148V26.0078H20.1358C21.1538 26.0078 21.9928 25.9198 22.6548 25.7438C23.3168 25.5678 23.9258 25.2728 24.4778 24.8578Z" fill="white"/>
</g>
</svg>
